<svg xmlns="http://www.w3.org/2000/svg" xmlns:xlink="http://www.w3.org/1999/xlink" width="2000" zoomAndPan="magnify" viewBox="0 0 1500 1499.999933" height="2000" preserveAspectRatio="xMidYMid meet" version="1.0"><defs><clipPath id="ef9174e96c"><path d="M 0.859375 0 L 263.003906 0 L 263.003906 1500 L 0.859375 1500 Z M 0.859375 0 " clip-rule="nonzero"/></clipPath><clipPath id="d29db51690"><path d="M 263.003906 119.386719 L 263.003906 1092.855469 L 131.929688 1500 L 0.859375 1092.855469 L 0.859375 119.386719 C 0.859375 55.101562 16.585938 0 34.9375 0 L 228.925781 0 C 247.273438 0 263.003906 55.101562 263.003906 119.386719 Z M 263.003906 119.386719 " clip-rule="nonzero"/></clipPath><clipPath id="7b8dcec89b"><path d="M 0.859375 0 L 263.003906 0 L 263.003906 1500 L 0.859375 1500 Z M 0.859375 0 " clip-rule="nonzero"/></clipPath><clipPath id="68a51d96f9"><path d="M 263.003906 119.386719 L 263.003906 1092.855469 L 131.929688 1500 L 0.859375 1092.855469 L 0.859375 119.386719 C 0.859375 55.101562 16.585938 0 34.9375 0 L 228.925781 0 C 247.273438 0 263.003906 55.101562 263.003906 119.386719 Z M 263.003906 119.386719 " clip-rule="nonzero"/></clipPath><clipPath id="068e4d0bcc"><rect x="0" width="264" y="0" height="1500"/></clipPath><clipPath id="ed07bc7309"><path d="M 418.925781 0 L 681.074219 0 L 681.074219 1500 L 418.925781 1500 Z M 418.925781 0 " clip-rule="nonzero"/></clipPath><clipPath id="19a6208c84"><path d="M 681.074219 119.386719 L 681.074219 1092.855469 L 550 1500 L 418.925781 1092.855469 L 418.925781 119.386719 C 418.925781 55.101562 434.65625 0 453.007812 0 L 646.992188 0 C 665.34375 0 681.074219 55.101562 681.074219 119.386719 Z M 681.074219 119.386719 " clip-rule="nonzero"/></clipPath><clipPath id="87bf18db12"><path d="M 0.925781 0 L 263.074219 0 L 263.074219 1500 L 0.925781 1500 Z M 0.925781 0 " clip-rule="nonzero"/></clipPath><clipPath id="1911668d4b"><path d="M 263.074219 119.386719 L 263.074219 1092.855469 L 132 1500 L 0.925781 1092.855469 L 0.925781 119.386719 C 0.925781 55.101562 16.65625 0 35.007812 0 L 228.992188 0 C 247.34375 0 263.074219 55.101562 263.074219 119.386719 Z M 263.074219 119.386719 " clip-rule="nonzero"/></clipPath><clipPath id="e45d4c884d"><rect x="0" width="264" y="0" height="1500"/></clipPath><clipPath id="0e12c41201"><path d="M 836.996094 0 L 1099.140625 0 L 1099.140625 1500 L 836.996094 1500 Z M 836.996094 0 " clip-rule="nonzero"/></clipPath><clipPath id="6324820a0c"><path d="M 1099.140625 119.386719 L 1099.140625 1092.855469 L 968.070312 1500 L 836.996094 1092.855469 L 836.996094 119.386719 C 836.996094 55.101562 852.726562 0 871.074219 0 L 1065.0625 0 C 1083.414062 0 1099.140625 55.101562 1099.140625 119.386719 Z M 1099.140625 119.386719 " clip-rule="nonzero"/></clipPath><clipPath id="9571b125b3"><path d="M 0.996094 0 L 263.140625 0 L 263.140625 1500 L 0.996094 1500 Z M 0.996094 0 " clip-rule="nonzero"/></clipPath><clipPath id="85ec0796fb"><path d="M 263.140625 119.386719 L 263.140625 1092.855469 L 132.070312 1500 L 0.996094 1092.855469 L 0.996094 119.386719 C 0.996094 55.101562 16.726562 0 35.074219 0 L 229.0625 0 C 247.414062 0 263.140625 55.101562 263.140625 119.386719 Z M 263.140625 119.386719 " clip-rule="nonzero"/></clipPath><clipPath id="6a2362558a"><rect x="0" width="264" y="0" height="1500"/></clipPath><clipPath id="e1d26ad7e7"><rect x="0" width="1100" y="0" height="1500"/></clipPath></defs><g transform="matrix(1, 0, 0, 1, 200, 0.000000000000112861)"><g clip-path="url(#e1d26ad7e7)"><g clip-path="url(#ef9174e96c)"><g clip-path="url(#d29db51690)"><g transform="matrix(1, 0, 0, 1, -0.000000000000028422, 0.000000000000112861)"><g clip-path="url(#068e4d0bcc)"><g clip-path="url(#7b8dcec89b)"><g clip-path="url(#68a51d96f9)"><path fill="#8c52ff" d="M 0.859375 0 L 263.003906 0 L 263.003906 1500.171875 L 0.859375 1500.171875 Z M 0.859375 0 " fill-opacity="1" fill-rule="nonzero"/></g></g></g></g></g></g><g clip-path="url(#ed07bc7309)"><g clip-path="url(#19a6208c84)"><g transform="matrix(1, 0, 0, 1, 418, 0.000000000000112861)"><g clip-path="url(#e45d4c884d)"><g clip-path="url(#87bf18db12)"><g clip-path="url(#1911668d4b)"><path fill="#8c52ff" d="M 0.925781 0 L 263.074219 0 L 263.074219 1500.171875 L 0.925781 1500.171875 Z M 0.925781 0 " fill-opacity="1" fill-rule="nonzero"/></g></g></g></g></g></g><g clip-path="url(#0e12c41201)"><g clip-path="url(#6324820a0c)"><g transform="matrix(1, 0, 0, 1, 836, 0.000000000000112861)"><g clip-path="url(#6a2362558a)"><g clip-path="url(#9571b125b3)"><g clip-path="url(#85ec0796fb)"><path fill="#8c52ff" d="M 0.996094 0 L 263.140625 0 L 263.140625 1500.171875 L 0.996094 1500.171875 Z M 0.996094 0 " fill-opacity="1" fill-rule="nonzero"/></g></g></g></g></g></g></g></g></svg>